<?xml version="1.0" ?><svg id="Layer_1" style="enable-background:new 0 0 512 512;" version="1.1" viewBox="0 0 512 512" xml:space="preserve" xmlns="http://www.w3.org/2000/svg" xmlns:xlink="http://www.w3.org/1999/xlink"><style type="text/css">
	.st0{fill:#474B4F;}
	.st1{fill:#FFDE40;}
	.st2{fill:#EF5BA1;}
	.st3{fill:#00BFF3;}
	.st4{fill:#FFFFFF;}
</style><g><path class="st0" d="M416.8,193.2c0,0-5.1-14.3-19.4-9.3l-241.9,85.6c0,0-14.3,5.1-9.3,19.4l45.2,127.7c0,0,5.1,14.3,19.4,9.3   l241.9-85.6c0,0,14.3-5.1,9.3-19.4L416.8,193.2L416.8,193.2z"/><path class="st1" d="M336.6,122.6c0,0-9.8-11.6-21.4-1.9L106.8,295.7c0,0-11.6,9.8-1.9,21.4L192,420.9c0,0,9.8,11.6,21.4,1.9   l208.5-174.9c0,0,11.6-9.8,1.9-21.4L336.6,122.6L336.6,122.6z"/><path class="st2" d="M231.5,78.1c0,0-13.2-7.5-20.7,5.7L69.5,333.7c0,0-7.5,13.2,5.7,20.7l117.9,66.7c0,0,13.2,7.5,20.7-5.7   l141.3-249.8c0,0,7.5-13.2-5.7-20.7L231.5,78.1L231.5,78.1z"/><path class="st3" d="M64.2,85.3c0,0-15.2,0-15.2,15.2v320.9c0,0,0,15.2,15.2,15.2h135.5c0,0,15.2,0,15.2-15.2V100.5   c0,0,0-15.2-15.2-15.2H64.2L64.2,85.3z"/><path class="st4" d="M183.4,418.4c5.6,0,10.1-4.5,10.1-10.1c0-5.6-4.5-10.1-10.1-10.1c-5.6,0-10.1,4.5-10.1,10.1   C173.2,413.9,177.8,418.4,183.4,418.4L183.4,418.4z"/></g></svg>